<?xml version="1.0" encoding="utf-8"?>
<!-- Generator: Adobe Illustrator 25.4.1, SVG Export Plug-In . SVG Version: 6.00 Build 0)  -->
<svg version="1.1" xmlns="http://www.w3.org/2000/svg" xmlns:xlink="http://www.w3.org/1999/xlink" x="0px" y="0px"
	 viewBox="0 0 500 500" enable-background="new 0 0 500 500" xml:space="preserve">
<g id="BACKGROUND">
</g>
<g id="OBJECTS">
	
		<path fill="#CDD0D1" stroke="#2C2D43" stroke-width="7" stroke-linecap="round" stroke-linejoin="round" stroke-miterlimit="10" d="
		M373.7,173.1c-2.2-0.8-4.5-1.2-6.9-1.2c-6,0-11.4,2.5-15.3,6.5c0,0,0,0,0,0c-1,1-1.2,1.3-1.3,1.4c1.4-0.6,2.9-0.9,4.4-0.9
		c2.1-0.1,4.2,0.2,6.2,0.9c4,1.3,7.7,3.7,10.5,6.8c1.4,1.6,2.6,3.4,3.5,5.4c0.8,2,1.4,4.1,1.5,6.2c0.3,4.3-1.3,8.5-3.7,11.7
		c1.5-3.8,2.3-7.7,1.6-11.5c-0.6-3.7-2.4-7.2-4.9-10c-2.5-2.8-5.7-5.1-9.2-6.6c-3.3-1.4-6.9-2.1-10.6-1.3
		c-8.2,2.9-14.1,10.7-14.1,19.9c0,7.4,3.8,13.9,9.6,17.7c-5.5,4.6-15,11.6-21.9,13.3c0,0-2,0.3-4.1,1c0.8-6.3-0.1-13-2.5-18.4
		c-2.2-5.1-6-8.7-10.6-11c0.1-4.8-0.7-9.5-2.1-12.8c-3.6-8.3-11.2-11.9-19.4-13.5c-0.7-4.1-2-8-3.8-10.6c-2.9-4.6-7.5-8.3-12.6-10.4
		c0.3-1,1.2-2,4.2-0.1l7,4.7c0,0,8.3,5.2,11.1-1.5l6.5-11.4c0,0,5.7,2.9,7,0.8c0,0-0.1-4.1,0.3-8.9c0.4-4,5.2-10.3,7-14.7
		c0,0,0.9-1.9,1.7-5c1-3.5,1.9-8.3,1.5-13.5c-0.3-2.8-0.9-5.8-2.3-8.6c0,0-0.7-2.3-3-5.4c-2-3.6-5.2-6.8-8.8-9.1
		c-10.4-6.8-24.3-7-35.7-2.3c-12.9,5.3-22.6,30.7-21.5,47.1c-2.3,1.4-4.4,2.7-6,3.8c-2.7,1.8-5.4,4-8,6.3
		c-7.2-0.3-14.4,0.4-21.2,2.5c-8.2,2.4-16.2,7.4-22,14.1c-5.2,1.4-10.2,4.3-14.1,7.3c-8,6.1-13.9,14.6-16.7,24.3
		c-3.6,12.8-1.9,35.5,9,46.5c-9.3,9.5-11.5,24.5-8.5,38.2c2.3,10.3,7.8,19.8,13.5,28.6c2.9,4.4,6.3,8.6,8.5,13.3c0.5,1,0.8,2,1.2,3
		c0.3,2.7,0.3,5.6,0.2,8.4c0,0-0.3,3.2-0.5,7c0,0,0,0.1,0,0.1c0,0,0,0,0,0v0.1h0c-0.2,1.3-0.3,2.7-0.3,4c0,1.5,0.1,2.9,0.4,4.3
		c0.3,1.5,0.7,2.8,1.3,4.2c0.6,1.4,1.5,2.6,2.4,3.7c-1.1-1-2.2-2.1-3-3.4c-0.8-1.3-1.5-2.7-2-4.2c-0.5-1.5-0.9-3-1.1-4.5
		c-0.2-1.6-0.3-3.1-0.3-4.8c0,0-0.6-0.1-1.2-0.1c-13.9-0.9-18,14.1-16.1,22.3c2.2,9.5,10.3,19.4,19.5,19.4c8.8,0,14.4-4.7,16.4-6.9
		c0,0,0,0,0,0c3-2.6,4.2-7.2,3.2-12.6c3.8,3.3,8.4,5.4,13.1,5.4c7.8,0,14-3.9,16.7-5.5c0.1,0,0.2-0.1,0.2-0.1
		c0.2-0.1,0.5-0.3,0.6-0.4c1.2-0.6,1.8-1.2,1.9-1.7c3-3.4,3.9-9,1.9-15.5c-0.3-1.1-0.7-2.1-1.2-3.1c0.3,0.1,0.7,0.3,1,0.4
		c0.7,0.3,1.5,0.6,2.2,0.8c0.1,0,0.1,0,0.2,0.1c0,0,0.1,0,0.1,0c0.6,0.2,1.3,0.5,1.9,0.7c0,0,0.1,0,0.1,0c0.5,0.2,1.1,0.4,1.6,0.5
		c0.1,0,0.1,0.1,0.2,0.1c0.7,0.2,1.4,0.5,2.2,0.7c1,0.3,2,0.6,3,0.8c0.1,0,0.3,0.1,0.4,0.1c0.9,0.2,1.9,0.5,2.9,0.7
		c0.9,0.2,1.9,0.4,2.8,0.6c0.3,0.1,0.5,0.1,0.8,0.2c0.9,0.2,1.8,0.4,2.8,0.5c0.8,0.2,1.6,0.3,2.4,0.4c0.3,0.1,0.7,0.1,1,0.2l0.2,0
		c0.9,0.1,1.8,0.2,2.6,0.3c0.1,0,0.2,0,0.3,0h0c0.9,0.1,1.8,0.2,2.7,0.3c0.1,0,0.2,0,0.3,0c0.1,0,0.1,0,0.2,0c1,0.1,2,0.2,3,0.2
		c0.1,0,0.3,0,0.4,0c1,0.1,2.1,0.1,3.2,0.1c1.1,0,2.2,0,3.4,0c20.4,0,39.5-5.3,56-14.7c-8-10.2-18.9-17.4-31.9-38.2
		c-1.4-5.8-18.8-28.5-19.8-35.7c0.9-5.3-1.4-11.2-2.7-12c0,0,3.9-6.5,3.4-11.4c0.5,2.7,1.6,9.1,2.1,10.4c0,0,2.9,21.4,21.9,29.7
		c0,0,6.4,3,12.6,0.8c8.1,2.6,18-1.8,23.6-8.2c4.1-4.6,6.7-10,9.3-15.5c1.3-2.9,3-5.9,4.2-9c2.7-4.2,5.4-9.1,8.1-14.6
		c5.6-0.8,10.4-3.9,13.6-8.2c4.7-1.6,8.6-4.7,11.2-8.8c2.1-3.2,3.2-7.1,3.2-11.2C387.9,183.8,382,176,373.7,173.1z M210.7,299.5
		c-1.9,4.2-3.2,8.8-3.9,13.5c0,0,0,0,0,0c-2.6,0-4.4,0.5-5.7,1.1c-0.6,0.3-1,0.5-1.5,0.8c-0.5,0.2-0.9,0.4-1.4,0.6
		c-0.5,0.7-0.9,1.5-1.3,2.4c-0.5,1.1-0.9,2.3-1.3,3.5c-0.3,1.2-0.5,2.4-0.5,3.7c0,1.2,0.3,2.5,0.7,3.7c-0.7-1.1-1.1-2.3-1.4-3.6
		c-0.2-1.3-0.3-2.6-0.2-4c0.1-1.3,0.4-2.6,0.7-3.9c0.2-0.9,0.5-1.8,0.9-2.6c-0.7-1.7-1.4-3.5-2.1-5.2c0.2-2.9,0.5-5.8,1.2-8.5
		c2.3-8,3.1-16.3,4-24.6c1.1-10.8-1.8-19.8-8.2-26.6c0.9-1.7,1.9-4,2.9-6.9c2.4,4.3,5.3,8.2,7.8,11.5c3.1,4.1,6.9,8.2,11.2,11.6
		c0.1,3.9-0.8,7.7-0.9,11.5c0,3,1,11.4,1.8,17.1C212.5,296.1,211.5,297.8,210.7,299.5z"/>
</g>
<g id="DESIGNER_BY_FREEPIK">
</g>
</svg>
